<svg width="21" height="18" viewBox="0 0 21 18" fill="none" xmlns="http://www.w3.org/2000/svg">
<path d="M19.6523 6.25427H15.5031L13.1756 0.924855C13.0461 0.628332 12.7007 0.492824 12.4042 0.622395C12.1076 0.751887 11.9722 1.09732 12.1017 1.39388L14.2244 6.25431H6.77561L8.89827 1.39388C9.02776 1.09732 8.89237 0.751926 8.59581 0.622395C8.29929 0.492824 7.95382 0.628254 7.82436 0.924855L5.49686 6.25427H1.34768C0.804911 6.25427 0.402099 6.74564 0.520849 7.26286L2.70581 16.7797C2.79257 17.1576 3.13608 17.4261 3.53265 17.4261H17.4673C17.8639 17.4261 18.2074 17.1576 18.2942 16.7797L20.4791 7.26286C20.5979 6.74568 20.195 6.25427 19.6523 6.25427ZM5.6071 8.0513C5.52882 8.0513 5.44925 8.03552 5.37288 8.00216C5.07632 7.87267 4.94089 7.52728 5.07042 7.23068L5.51057 6.22278H6.78933L6.14432 7.69966C6.04819 7.91993 5.83296 8.0513 5.6071 8.0513ZM7.5703 14.3011C7.5703 14.6247 7.30796 14.8871 6.98436 14.8871C6.66077 14.8871 6.39843 14.6247 6.39843 14.3011V10.0043C6.39843 9.68068 6.66077 9.41833 6.98436 9.41833C7.30796 9.41833 7.5703 9.68068 7.5703 10.0043V14.3011ZM11.0859 14.3011C11.0859 14.6247 10.8236 14.8871 10.5 14.8871C10.1764 14.8871 9.91405 14.6247 9.91405 14.3011V10.0043C9.91405 9.68068 10.1764 9.41833 10.5 9.41833C10.8236 9.41833 11.0859 9.68068 11.0859 10.0043V14.3011ZM14.6016 14.3011C14.6016 14.6247 14.3392 14.8871 14.0156 14.8871C13.692 14.8871 13.4297 14.6247 13.4297 14.3011V10.0043C13.4297 9.68068 13.692 9.41833 14.0156 9.41833C14.3392 9.41833 14.6016 9.68068 14.6016 10.0043V14.3011ZM15.6271 8.00216C15.5507 8.03552 15.4712 8.0513 15.3929 8.0513C15.167 8.0513 14.9518 7.91997 14.8556 7.6997L14.2106 6.22282H15.4894L15.9295 7.23071C16.0591 7.52728 15.9236 7.87267 15.6271 8.00216Z" fill="#6F73EE"/>
</svg>
