<svg width="20" height="20" viewBox="0 0 20 20" fill="none" xmlns="http://www.w3.org/2000/svg">
<g clip-path="url(#clip0_3_403)">
<path d="M19.703 7.22929C19.4389 6.89796 19.0427 6.70788 18.6159 6.70788H14.7642L12.6756 1.92534C12.5461 1.62882 12.2007 1.49331 11.9041 1.62288C11.6076 1.75238 11.4721 2.0978 11.6017 2.39437L13.4854 6.70792H6.51443L8.39822 2.39437C8.52771 2.0978 8.39232 1.75241 8.09576 1.62288C7.79924 1.49331 7.45381 1.62874 7.32432 1.92534L5.23568 6.70792H1.38396C0.957168 6.70792 0.560957 6.89796 0.296855 7.22933C0.0375977 7.55464 -0.0580664 7.97284 0.0343946 8.37683L2.09131 17.3612C2.23494 17.9885 2.7899 18.4267 3.44088 18.4267H16.559C17.21 18.4267 17.7649 17.9885 17.9086 17.3612L19.9655 8.37679C20.0579 7.9728 19.9623 7.5546 19.703 7.22929ZM16.559 17.2548H3.44088C3.34139 17.2548 3.25424 17.1895 3.23365 17.0996L1.17674 8.1153C1.16061 8.0448 1.18768 7.99175 1.2133 7.95968C1.23705 7.92984 1.29084 7.8798 1.38396 7.8798H4.72393L4.57045 8.23124C4.44096 8.5278 4.57635 8.8732 4.87291 9.00273C4.94924 9.03609 5.02877 9.05187 5.10709 9.05187C5.33295 9.05187 5.54818 8.9205 5.64436 8.7003L6.00268 7.87988H13.9973L14.3556 8.7003C14.4518 8.92054 14.667 9.05187 14.8929 9.05187C14.9712 9.05187 15.0507 9.03609 15.1271 9.00273C15.4236 8.87323 15.559 8.5278 15.4295 8.23124L15.276 7.8798H18.616C18.7091 7.8798 18.7629 7.92984 18.7867 7.95968C18.8122 7.99179 18.8394 8.04484 18.8232 8.11527L16.7663 17.0996C16.7457 17.1895 16.6585 17.2548 16.559 17.2548Z" fill="#6F73EE"/>
<path d="M19.703 7.22929C19.4389 6.89796 19.0427 6.70788 18.6159 6.70788H14.7642L12.6756 1.92534C12.5461 1.62882 12.2007 1.49331 11.9041 1.62288C11.6076 1.75238 11.4721 2.0978 11.6017 2.39437L13.4854 6.70792H6.51443L8.39822 2.39437C8.52771 2.0978 8.39232 1.75241 8.09576 1.62288C7.79924 1.49331 7.45381 1.62874 7.32432 1.92534L5.23568 6.70792H1.38396C0.957168 6.70792 0.560957 6.89796 0.296855 7.22933C0.0375977 7.55464 -0.0580664 7.97284 0.0343946 8.37683L2.09131 17.3612C2.23494 17.9885 2.7899 18.4267 3.44088 18.4267H16.559C17.21 18.4267 17.7649 17.9885 17.9086 17.3612L19.9655 8.37679C20.0579 7.9728 19.9623 7.5546 19.703 7.22929ZM16.559 17.2548H3.44088C3.34139 17.2548 3.25424 17.1895 3.23365 17.0996L1.17674 8.1153C1.16061 8.0448 1.18768 7.99175 1.2133 7.95968C1.23705 7.92984 1.29084 7.8798 1.38396 7.8798H4.72393L4.57045 8.23124C4.44096 8.5278 4.57635 8.8732 4.87291 9.00273C4.94924 9.03609 5.02877 9.05187 5.10709 9.05187C5.33295 9.05187 5.54818 8.9205 5.64436 8.7003L6.00268 7.87988H13.9973L14.3556 8.7003C14.4518 8.92054 14.667 9.05187 14.8929 9.05187C14.9712 9.05187 15.0507 9.03609 15.1271 9.00273C15.4236 8.87323 15.559 8.5278 15.4295 8.23124L15.276 7.8798H18.616C18.7091 7.8798 18.7629 7.92984 18.7867 7.95968C18.8122 7.99179 18.8394 8.04484 18.8232 8.11527L16.7663 17.0996C16.7457 17.1895 16.6585 17.2548 16.559 17.2548Z" stroke="#6F73EE"/>
<path d="M6.48438 10.4189C6.16078 10.4189 5.89844 10.6813 5.89844 11.0049V15.3018C5.89844 15.6254 6.16078 15.8877 6.48438 15.8877C6.80797 15.8877 7.07031 15.6254 7.07031 15.3018V11.0049C7.07031 10.6813 6.80801 10.4189 6.48438 10.4189Z" fill="#6F73EE"/>
<path d="M6.48438 10.4189C6.16078 10.4189 5.89844 10.6813 5.89844 11.0049V15.3018C5.89844 15.6254 6.16078 15.8877 6.48438 15.8877C6.80797 15.8877 7.07031 15.6254 7.07031 15.3018V11.0049C7.07031 10.6813 6.80801 10.4189 6.48438 10.4189Z" stroke="#6F73EE"/>
<path d="M10 10.4189C9.67641 10.4189 9.41406 10.6813 9.41406 11.0049V15.3018C9.41406 15.6254 9.67641 15.8877 10 15.8877C10.3236 15.8877 10.5859 15.6254 10.5859 15.3018V11.0049C10.5859 10.6813 10.3236 10.4189 10 10.4189Z" fill="#6F73EE"/>
<path d="M10 10.4189C9.67641 10.4189 9.41406 10.6813 9.41406 11.0049V15.3018C9.41406 15.6254 9.67641 15.8877 10 15.8877C10.3236 15.8877 10.5859 15.6254 10.5859 15.3018V11.0049C10.5859 10.6813 10.3236 10.4189 10 10.4189Z" stroke="#6F73EE"/>
<path d="M13.5156 10.4189C13.192 10.4189 12.9297 10.6813 12.9297 11.0049V15.3018C12.9297 15.6254 13.192 15.8877 13.5156 15.8877C13.8392 15.8877 14.1016 15.6254 14.1016 15.3018V11.0049C14.1015 10.6813 13.8392 10.4189 13.5156 10.4189Z" fill="#6F73EE"/>
<path d="M13.5156 10.4189C13.192 10.4189 12.9297 10.6813 12.9297 11.0049V15.3018C12.9297 15.6254 13.192 15.8877 13.5156 15.8877C13.8392 15.8877 14.1016 15.6254 14.1016 15.3018V11.0049C14.1015 10.6813 13.8392 10.4189 13.5156 10.4189Z" stroke="#6F73EE"/>
</g>
<defs>
<clipPath id="clip0_3_403">
<rect width="20" height="20" fill="white"/>
</clipPath>
</defs>
</svg>
