<svg width="20" height="19" viewBox="0 0 20 19" fill="none" xmlns="http://www.w3.org/2000/svg">
<path d="M14.6395 0.191406H5.3457C2.78953 0.191406 0.691406 2.28953 0.691406 4.86048V14.1543C0.691406 16.7105 2.78953 18.8086 5.3457 18.8086H14.6395C17.2105 18.8086 19.3086 16.7105 19.3086 14.1395V4.86048C19.3086 2.28953 17.2105 0.191406 14.6395 0.191406ZM12.4971 9.49999H10.7388V15.2625H8.52244V9.49999H7.3404V7.13591H8.37468V6.13117C8.37468 5.18554 8.8475 3.69321 10.8422 3.69321H12.6596V5.65835H11.3741C11.1673 5.65835 10.8865 5.79133 10.8865 6.24938V7.13591H12.7039L12.4971 9.49999Z" fill="white"/>
</svg>
