<svg width="21" height="21" viewBox="0 0 21 21" fill="none" xmlns="http://www.w3.org/2000/svg">
<path d="M2.83834 4.7209L5.02242 2.53887C5.17649 2.38412 5.35961 2.26134 5.56127 2.17758C5.76293 2.09382 5.97916 2.05073 6.19752 2.05078C6.64254 2.05078 7.0609 2.2251 7.37467 2.53887L9.72486 4.88906C9.87961 5.04313 10.0024 5.22625 10.0861 5.42791C10.1699 5.62957 10.213 5.8458 10.213 6.06416C10.213 6.50918 10.0386 6.92754 9.72486 7.24131L8.00631 8.95986C8.40858 9.84654 8.96787 10.6532 9.65719 11.3408C10.3448 12.0318 11.1513 12.5931 12.0381 12.9979L13.7567 11.2793C13.9108 11.1246 14.0939 11.0018 14.2956 10.918C14.4972 10.8343 14.7134 10.7912 14.9318 10.7912C15.3768 10.7912 15.7952 10.9655 16.1089 11.2793L18.4612 13.6274C18.6161 13.7818 18.739 13.9653 18.8228 14.1673C18.9065 14.3693 18.9495 14.5859 18.9493 14.8046C18.9493 15.2496 18.775 15.668 18.4612 15.9817L16.2812 18.1617C15.7808 18.6642 15.0897 18.9492 14.3801 18.9492C14.2304 18.9492 14.0869 18.9369 13.9454 18.9123C11.1809 18.457 8.43902 16.9866 6.22623 14.7759C4.01549 12.5672 2.54713 9.82734 2.0857 7.05469C1.94625 6.20771 2.22721 5.33613 2.83834 4.7209V4.7209Z" fill="#6F73EE"/>
</svg>
