<svg width="21" height="21" viewBox="0 0 21 21" fill="none" xmlns="http://www.w3.org/2000/svg">
<path d="M20.5722 9.05616C20.2054 6.38269 18.7915 3.96444 16.6417 2.33338C14.4919 0.702323 11.7823 -0.00792534 9.10879 0.358881C6.43532 0.725688 4.01706 2.1395 2.38601 4.2893C0.75495 6.4391 0.0447023 9.14879 0.411509 11.8223C0.71371 14.035 1.73056 16.0885 3.30732 17.6701C4.88407 19.2517 6.93438 20.2748 9.1462 20.5839C9.59878 20.6431 10.0547 20.6729 10.5112 20.6731C12.3554 20.6761 14.165 20.1729 15.7428 19.2182C15.8536 19.1515 15.9501 19.0636 16.0269 18.9596C16.1037 18.8556 16.1592 18.7375 16.1903 18.612C16.2215 18.4866 16.2276 18.3562 16.2084 18.2283C16.1891 18.1005 16.1449 17.9777 16.0782 17.867C16.0115 17.7562 15.9236 17.6597 15.8196 17.5829C15.7156 17.5061 15.5975 17.4506 15.472 17.4195C15.2186 17.3566 14.9506 17.3969 14.7269 17.5316C13.6039 18.2057 12.3357 18.6011 11.0285 18.6846C9.72134 18.7682 8.41315 18.5375 7.2134 18.0119C6.01364 17.4862 4.95721 16.6809 4.13246 15.6633C3.30771 14.6457 2.73864 13.4454 2.47284 12.1628C2.20704 10.8802 2.25224 9.55263 2.60467 8.29108C2.9571 7.02953 3.6065 5.87072 4.49856 4.91159C5.39062 3.95245 6.49939 3.22088 7.73212 2.77807C8.96485 2.33525 10.2857 2.19408 11.5842 2.36635C12.7902 2.52671 13.9455 2.95334 14.9664 3.61535C15.9872 4.27735 16.8479 5.15814 17.4863 6.1939C18.1247 7.22967 18.5247 8.39446 18.6573 9.6039C18.7899 10.8133 18.6518 12.0371 18.253 13.1866C18.1495 13.463 17.9625 13.7004 17.7181 13.8657C17.4736 14.031 17.1837 14.1162 16.8886 14.1093C16.4998 14.1088 16.127 13.9541 15.8521 13.6791C15.5771 13.4042 15.4224 13.0314 15.4219 12.6426V6.56241C15.4219 6.30134 15.3182 6.05096 15.1336 5.86635C14.949 5.68175 14.6986 5.57804 14.4375 5.57804C14.1765 5.57804 13.9261 5.68175 13.7415 5.86635C13.5569 6.05096 13.4532 6.30134 13.4532 6.56241V6.5716C12.7069 6.00837 11.8157 5.66934 10.8838 5.59418C9.95184 5.51902 9.01779 5.71085 8.19093 6.14722C7.36407 6.58359 6.67859 7.24643 6.21473 8.05819C5.75087 8.86995 5.52781 9.79704 5.57165 10.731C5.6155 11.6649 5.92444 12.567 6.46232 13.3317C7.0002 14.0964 7.74476 14.6921 8.60887 15.0491C9.47298 15.4061 10.4209 15.5096 11.3417 15.3474C12.2624 15.1853 13.118 14.7642 13.8082 14.1336C14.0871 14.7144 14.5239 15.2049 15.0688 15.5488C15.6136 15.8927 16.2443 16.0761 16.8886 16.078C17.593 16.0848 18.2819 15.8721 18.8598 15.4694C19.4377 15.0668 19.8759 14.4941 20.1134 13.831C20.644 12.2986 20.8012 10.6616 20.5722 9.05616V9.05616ZM10.5 13.453C9.91597 13.453 9.34501 13.2798 8.85937 12.9553C8.37373 12.6309 7.99522 12.1696 7.77171 11.63C7.54819 11.0904 7.48971 10.4966 7.60366 9.92379C7.71761 9.35094 7.99886 8.82474 8.41187 8.41174C8.82487 7.99874 9.35106 7.71748 9.92391 7.60353C10.4968 7.48958 11.0905 7.54807 11.6302 7.77158C12.1698 7.9951 12.631 8.37361 12.9555 8.85924C13.28 9.34488 13.4532 9.91584 13.4532 10.4999C13.4523 11.2829 13.1409 12.0335 12.5873 12.5871C12.0336 13.1408 11.283 13.4522 10.5 13.453V13.453Z" fill="#6F73EE"/>
</svg>
