<svg width="20" height="20" viewBox="0 0 20 20" fill="none" xmlns="http://www.w3.org/2000/svg">
<path d="M17.9935 5.51484C17.7329 4.90528 17.357 4.35291 16.887 3.88864C16.4167 3.42298 15.8621 3.05293 15.2535 2.79861C14.6224 2.53385 13.9455 2.39833 13.2622 2.39992C12.3034 2.39992 11.3681 2.66506 10.5552 3.16588C10.3607 3.28569 10.176 3.41727 10.001 3.56065C9.82594 3.41727 9.6412 3.28569 9.44673 3.16588C8.63386 2.66506 7.69847 2.39992 6.73975 2.39992C6.0494 2.39992 5.38043 2.53347 4.74841 2.79861C4.13779 3.05393 3.58745 3.4212 3.11489 3.88864C2.64428 4.35239 2.26834 4.90489 2.00838 5.51484C1.73807 6.14922 1.6 6.82287 1.6 7.51617C1.6 8.17019 1.73224 8.8517 1.99477 9.54499C2.21451 10.1244 2.52955 10.7254 2.9321 11.3322C3.56995 12.2926 4.44699 13.2943 5.536 14.3097C7.34066 15.9929 9.1278 17.1555 9.20365 17.2027L9.66453 17.5012C9.86872 17.6328 10.1313 17.6328 10.3354 17.5012L10.7963 17.2027C10.8722 17.1536 12.6574 15.9929 14.464 14.3097C15.553 13.2943 16.43 12.2926 17.0679 11.3322C17.4704 10.7254 17.7874 10.1244 18.0052 9.54499C18.2677 8.8517 18.4 8.17019 18.4 7.51617C18.4019 6.82287 18.2639 6.14922 17.9935 5.51484ZM10.001 15.9477C10.001 15.9477 3.07795 11.4678 3.07795 7.51617C3.07795 5.51484 4.7173 3.89257 6.73975 3.89257C8.1613 3.89257 9.39422 4.69388 10.001 5.86443C10.6077 4.69388 11.8406 3.89257 13.2622 3.89257C15.2846 3.89257 16.924 5.51484 16.924 7.51617C16.924 11.4678 10.001 15.9477 10.001 15.9477Z" fill="#6F73EE"/>
</svg>
