<svg width="17" height="16" viewBox="0 0 17 16" fill="none" xmlns="http://www.w3.org/2000/svg">
<path d="M16.4935 3.51484C16.2329 2.90528 15.857 2.35291 15.387 1.88864C14.9167 1.42298 14.3621 1.05293 13.7535 0.798611C13.1224 0.533848 12.4455 0.398328 11.7622 0.399916C10.8035 0.399916 9.86807 0.665058 9.0552 1.16588C8.86073 1.28569 8.67599 1.41727 8.50097 1.56065C8.32595 1.41727 8.1412 1.28569 7.94674 1.16588C7.13387 0.665058 6.19848 0.399916 5.23976 0.399916C4.5494 0.399916 3.88044 0.533469 3.24842 0.798611C2.6378 1.05393 2.08746 1.4212 1.6149 1.88864C1.14429 2.35239 0.768345 2.90489 0.508386 3.51484C0.238077 4.14922 0.100006 4.82287 0.100006 5.51617C0.100006 6.17019 0.232244 6.8517 0.494774 7.54499C0.714521 8.12438 1.02956 8.72537 1.4321 9.33225C2.06995 10.2926 2.947 11.2943 4.03601 12.3097C5.84066 13.9929 7.62781 15.1555 7.70365 15.2027L8.16454 15.5012C8.36873 15.6328 8.63126 15.6328 8.83545 15.5012L9.29634 15.2027C9.37218 15.1536 11.1574 13.9929 12.964 12.3097C14.053 11.2943 14.93 10.2926 15.5679 9.33225C15.9704 8.72537 16.2874 8.12438 16.5052 7.54499C16.7677 6.8517 16.9 6.17019 16.9 5.51617C16.9019 4.82287 16.7639 4.14922 16.4935 3.51484ZM8.50097 13.9477C8.50097 13.9477 1.57795 9.46776 1.57795 5.51617C1.57795 3.51484 3.21731 1.89257 5.23976 1.89257C6.66131 1.89257 7.89423 2.69388 8.50097 3.86443C9.1077 2.69388 10.3406 1.89257 11.7622 1.89257C13.7846 1.89257 15.424 3.51484 15.424 5.51617C15.424 9.46776 8.50097 13.9477 8.50097 13.9477Z" fill="#282739"/>
</svg>
