<svg width="189" height="39" viewBox="0 0 189 39" fill="none" xmlns="http://www.w3.org/2000/svg">
<path d="M71.212 20.8478L65.056 5.79982H57.964L71.212 32.5838L84.496 5.79982H77.368L71.212 20.8478Z" fill="#282739"/>
<path d="M87.1366 5.79982V30.9998H93.3286V5.79982H87.1366Z" fill="#282739"/>
<path d="M101.44 22.1438L97.1919 25.2038C97.7679 26.4038 98.5719 27.5078 99.6039 28.5158C100.636 29.5238 101.848 30.3278 103.24 30.9278C104.656 31.5038 106.18 31.7918 107.812 31.7918C108.988 31.7918 110.128 31.6118 111.232 31.2518C112.36 30.9158 113.356 30.4118 114.22 29.7398C115.108 29.0678 115.804 28.2398 116.308 27.2558C116.836 26.2478 117.1 25.1078 117.1 23.8358C117.1 22.7798 116.932 21.8438 116.596 21.0278C116.26 20.2118 115.792 19.4918 115.192 18.8678C114.616 18.2438 113.944 17.7158 113.176 17.2838C112.408 16.8278 111.58 16.4318 110.692 16.0958C109.516 15.6878 108.508 15.3038 107.668 14.9438C106.852 14.5838 106.216 14.1878 105.76 13.7558C105.328 13.3238 105.112 12.8198 105.112 12.2438C105.112 11.6918 105.34 11.2358 105.796 10.8758C106.252 10.4918 106.912 10.2998 107.776 10.2998C108.424 10.2998 109.024 10.4318 109.576 10.6958C110.152 10.9358 110.668 11.2838 111.124 11.7398C111.604 12.1718 112.024 12.6878 112.384 13.2878L117.028 10.6958C116.596 9.83182 115.972 8.97982 115.156 8.13982C114.34 7.29982 113.308 6.60382 112.06 6.05182C110.836 5.49982 109.384 5.22382 107.704 5.22382C106.072 5.22382 104.584 5.51182 103.24 6.08782C101.92 6.63982 100.864 7.45582 100.072 8.53582C99.3039 9.61582 98.9199 10.8998 98.9199 12.3878C98.9199 13.6358 99.1479 14.7038 99.6039 15.5918C100.06 16.4558 100.636 17.1998 101.332 17.8238C102.028 18.4238 102.76 18.9158 103.528 19.2998C104.32 19.6838 105.016 19.9838 105.616 20.1998C106.84 20.6558 107.824 21.0638 108.568 21.4238C109.312 21.7838 109.852 22.1678 110.188 22.5758C110.524 22.9598 110.692 23.4758 110.692 24.1238C110.692 24.8918 110.404 25.5038 109.828 25.9598C109.252 26.3918 108.52 26.6078 107.632 26.6078C106.792 26.6078 105.988 26.4278 105.22 26.0678C104.476 25.7078 103.78 25.1918 103.132 24.5198C102.508 23.8478 101.944 23.0558 101.44 22.1438Z" fill="#282739"/>
<path d="M125.2 11.0198H136.468V5.79982H125.2V11.0198ZM125.2 20.8838H136.108V15.9878H125.2V20.8838ZM121.168 5.79982V30.9998H127V5.79982H121.168Z" fill="#282739"/>
<path d="M142.495 26.1398H155.815L155.419 21.4958H142.927L142.495 26.1398ZM149.083 15.0518L152.647 23.2238L152.431 24.7718L155.455 30.9998H162.367L149.083 4.21582L135.835 30.9998H142.711L145.843 24.5198L145.555 23.1878L149.083 15.0518Z" fill="#282739"/>
<path d="M182.396 5.79982V19.9838L165.008 4.53982V30.9998H170.84V16.8158L188.264 32.2598V5.79982H182.396Z" fill="#282739"/>
<path d="M6.11367 14.6293V0L22.9726 9.19017V15.3795L17.2294 11.8159V26.4452L0 16.6924V10.6906L6.11367 14.6293Z" fill="#4664FF"/>
<path d="M40.0275 14.6293V0L22.9726 9.19017V15.3795L28.7825 11.8159V26.4452L46.2123 16.6924V10.6906L40.0275 14.6293Z" fill="#4664FF"/>
<path d="M23.8148 38.9999L6.94519 30.2116V24.041L23.8148 33.3903L40.8698 24.041V30.2116L23.8148 38.9999Z" fill="#C7CCFF"/>
</svg>
