<svg width="20" height="19" viewBox="0 0 20 19" fill="none" xmlns="http://www.w3.org/2000/svg">
<path d="M11.9274 5.66926C11.9274 6.20265 11.7395 6.65724 11.3637 7.03303C10.9879 7.40883 10.5333 7.59672 9.99994 7.59672C9.46656 7.59672 9.01197 7.40883 8.63617 7.03303C8.26038 6.65724 8.07248 6.20265 8.07248 5.66926C8.07248 5.13588 8.26038 4.68129 8.63617 4.30549C9.01197 3.9297 9.46656 3.7418 9.99994 3.7418C10.5333 3.7418 10.9879 3.9297 11.3637 4.30549C11.7395 4.68129 11.9274 5.13588 11.9274 5.66926ZM14.5216 10.0697C14.4408 9.90806 14.3276 9.77876 14.1822 9.68178C14.0367 9.5848 13.8448 9.54641 13.6064 9.56661C13.3679 9.58682 13.1235 9.69794 12.8729 9.89998C12.7921 9.96463 12.6749 10.0454 12.5214 10.1424C12.3678 10.2394 12.0405 10.3687 11.5395 10.5303C11.0384 10.692 10.5252 10.7728 9.99994 10.7728C9.47464 10.7728 8.97358 10.7001 8.49676 10.5546C8.01995 10.4091 7.67244 10.2637 7.45424 10.1182L7.12693 9.89998C6.8764 9.69794 6.63194 9.58682 6.39353 9.56661C6.15512 9.54641 5.96318 9.5848 5.81771 9.68178C5.67225 9.77876 5.5591 9.90806 5.47829 10.0697C5.30049 10.4334 5.29241 10.7344 5.45404 10.9728C5.61567 11.2112 5.96722 11.5082 6.50869 11.8638C7.17946 12.2921 8.09268 12.5629 9.24835 12.676L8.63011 13.3064C7.48252 14.454 6.71073 15.2217 6.31473 15.6096C6.13694 15.7874 6.04804 15.9996 6.04804 16.2461C6.04804 16.4925 6.13694 16.7047 6.31473 16.8825L6.42383 16.9916C6.60163 17.1694 6.81377 17.2583 7.06026 17.2583C7.30675 17.2583 7.51889 17.1694 7.69669 16.9916L10.0121 14.6762C10.9334 15.6056 11.7052 16.3774 12.3274 16.9916C12.5052 17.1694 12.7174 17.2583 12.9639 17.2583C13.2104 17.2583 13.4225 17.1694 13.6003 16.9916L13.7094 16.8825C13.8872 16.7047 13.9761 16.4925 13.9761 16.2461C13.9761 15.9996 13.8872 15.7874 13.7094 15.6096L11.394 13.3064L10.7637 12.676C11.9032 12.5629 12.8123 12.2921 13.4912 11.8638C14.0327 11.5082 14.3842 11.2112 14.5458 10.9728C14.7075 10.7344 14.6994 10.4334 14.5216 10.0697ZM13.9276 5.66926C13.9276 4.58633 13.5437 3.66099 12.776 2.89324C12.0082 2.12548 11.0829 1.74161 9.99994 1.74161C8.91701 1.74161 7.99166 2.12548 7.22391 2.89324C6.45616 3.66099 6.07229 4.58633 6.07229 5.66926C6.07229 6.7522 6.45616 7.67754 7.22391 8.44529C7.99166 9.21305 8.91701 9.59692 9.99994 9.59692C11.0829 9.59692 12.0082 9.21305 12.776 8.44529C13.5437 7.67754 13.9276 6.7522 13.9276 5.66926ZM19.3099 3.68119V15.3187C19.3099 16.2804 18.9685 17.1027 18.2856 17.7856C17.6027 18.4685 16.7804 18.8099 15.8187 18.8099H4.18119C3.21948 18.8099 2.39718 18.4685 1.71428 17.7856C1.03139 17.1027 0.689941 16.2804 0.689941 15.3187V3.68119C0.689941 2.71948 1.03139 1.89718 1.71428 1.21428C2.39718 0.531389 3.21948 0.189941 4.18119 0.189941H15.8187C16.7804 0.189941 17.6027 0.531389 18.2856 1.21428C18.9685 1.89718 19.3099 2.71948 19.3099 3.68119Z" fill="white"/>
</svg>
