<svg width="17" height="16" viewBox="0 0 17 16" fill="none" xmlns="http://www.w3.org/2000/svg">
<g clip-path="url(#clip0_12_15464)">
<path d="M15.969 14.8499L11.0891 9.65596C11.8464 8.61396 12.256 7.33997 12.256 5.99997C12.256 4.39598 11.6679 2.89199 10.6044 1.75799C9.54082 0.623997 8.12403 0 6.61892 0C5.11381 0 3.69702 0.625997 2.63348 1.75799C1.56807 2.88999 0.981812 4.39598 0.981812 5.99997C0.981812 7.60197 1.56995 9.10996 2.63348 10.242C3.69702 11.376 5.11193 11.9999 6.61892 11.9999C7.87787 11.9999 9.07294 11.564 10.0519 10.76L14.9318 15.9519C14.9461 15.9672 14.9631 15.9793 14.9818 15.9875C15.0005 15.9958 15.0205 16 15.0408 16C15.061 16 15.081 15.9958 15.0997 15.9875C15.1184 15.9793 15.1354 15.9672 15.1497 15.9519L15.969 15.0819C15.9833 15.0667 15.9947 15.0486 16.0024 15.0287C16.0102 15.0088 16.0142 14.9875 16.0142 14.9659C16.0142 14.9444 16.0102 14.9231 16.0024 14.9032C15.9947 14.8833 15.9833 14.8652 15.969 14.8499ZM9.59531 9.16796C8.7986 10.014 7.74258 10.48 6.61892 10.48C5.49525 10.48 4.43924 10.014 3.64253 9.16796C2.84769 8.31996 2.40988 7.19597 2.40988 5.99997C2.40988 4.80398 2.84769 3.67798 3.64253 2.83199C4.43924 1.98599 5.49525 1.51999 6.61892 1.51999C7.74258 1.51999 8.80048 1.98399 9.59531 2.83199C10.3901 3.67998 10.828 4.80398 10.828 5.99997C10.828 7.19597 10.3901 8.32196 9.59531 9.16796Z" fill="white"/>
</g>
<defs>
<clipPath id="clip0_12_15464">
<rect width="15.0323" height="16" fill="white" transform="translate(0.981812)"/>
</clipPath>
</defs>
</svg>
