<svg width="20" height="19" viewBox="0 0 20 19" fill="none" xmlns="http://www.w3.org/2000/svg">
<path fill-rule="evenodd" clip-rule="evenodd" d="M5.34631 0.190918C2.77582 0.190918 0.692017 2.27472 0.692017 4.84521V14.1538C0.692017 16.7243 2.77582 18.8081 5.34631 18.8081H14.6549C17.2254 18.8081 19.3092 16.7243 19.3092 14.1538V4.84521C19.3092 2.27472 17.2254 0.190918 14.6549 0.190918H5.34631ZM15.5096 5.81486C15.9202 5.81486 16.0065 6.02624 15.9202 6.31384V6.31393C15.7476 7.10497 14.0938 9.43483 14.0938 9.43483C13.9499 9.66483 13.8924 9.77983 14.0938 10.0387C14.1646 10.138 14.3158 10.2861 14.4889 10.4556C14.6669 10.63 14.8681 10.8271 15.0285 11.0167C15.6116 11.6728 16.0511 12.226 16.1734 12.6075C16.2853 12.9902 16.0914 13.1842 15.7036 13.1842H14.3461C13.9825 13.1842 13.7994 12.9805 13.404 12.5406C13.2363 12.354 13.0304 12.1249 12.7562 11.8508C11.9507 11.0742 11.6056 10.9736 11.4042 10.9736C11.131 10.9736 11.0493 11.0509 11.0493 11.4388V12.6562C11.0493 12.9902 10.9426 13.1842 10.0796 13.1842C8.64144 13.1842 7.06112 12.3109 5.93924 10.7003C4.25661 8.34175 3.79632 6.55838 3.79632 6.19884C3.79632 5.99744 3.87389 5.81486 4.26175 5.81486H5.61925C5.96619 5.81486 6.09671 5.9667 6.22683 6.34263C6.89085 8.27659 8.0102 9.96687 8.4704 9.96687C8.64299 9.96687 8.72212 9.88736 8.72212 9.44908V7.44997C8.69095 6.88099 8.49221 6.63492 8.34499 6.45265C8.25407 6.34007 8.1828 6.25183 8.1828 6.12689C8.1828 5.97504 8.31254 5.81486 8.52819 5.81486H10.6614C10.9491 5.81486 11.0493 5.96864 11.0493 6.31384V9.00324C11.0493 9.29084 11.1742 9.39139 11.2605 9.39139C11.433 9.39139 11.5768 9.29084 11.8932 8.97444C12.8712 7.88146 13.5616 6.19884 13.5616 6.19884C13.6479 5.99744 13.8069 5.81486 14.1521 5.81486H15.5096Z" fill="white"/>
</svg>
